<svg width="26" height="26" fill="none" xmlns="http://www.w3.org/2000/svg"><path d="M13 2.167c2.69-.031 5.29.98 7.248 2.819l-3.093 3.092A5.887 5.887 0 0013 6.454c-2.827 0-5.227 1.907-6.083 4.474a6.489 6.489 0 000 4.148c.864 2.564 3.26 4.47 6.087 4.47 1.46 0 2.714-.374 3.685-1.035l-.003.002a5.021 5.021 0 002.11-3.027l.055-.267H13v-4.171h10.218c.127.724.187 1.465.187 2.201 0 3.296-1.179 6.082-3.229 7.97l.002-.004c-1.715 1.587-4.044 2.534-6.8 2.613l-.378.005a10.834 10.834 0 01-9.681-5.966l-.159-.33a10.842 10.842 0 01.159-9.399l.158-.302A10.83 10.83 0 0113 2.167z" fill="#fff"/></svg>