<svg width="26" height="26" fill="none" xmlns="http://www.w3.org/2000/svg"><path fill-rule="evenodd" clip-rule="evenodd" d="M21.606 8.653c.014.19.014.38.014.569 0 5.782-4.468 12.445-12.634 12.445-2.516 0-4.853-.718-6.82-1.964.358.04.702.054 1.073.054a8.98 8.98 0 005.513-1.868c-1.952-.041-3.588-1.3-4.152-3.034.275.04.55.068.839.068a4.75 4.75 0 001.168-.149c-2.034-.406-3.56-2.167-3.56-4.293v-.054a4.523 4.523 0 002.007.555 4.354 4.354 0 01-1.98-3.642c0-.813.22-1.558.605-2.208C5.865 7.786 9.15 9.52 12.835 9.71a4.861 4.861 0 01-.11-1.002c0-2.41 1.98-4.374 4.44-4.374 1.28 0 2.434.529 3.245 1.382a8.824 8.824 0 002.818-1.057 4.375 4.375 0 01-1.952 2.41 9.01 9.01 0 002.557-.676 9.469 9.469 0 01-2.227 2.261z" fill="#fff"/></svg>